<svg width="260" height="280" viewBox="0 0 260 280" fill="none" xmlns="http://www.w3.org/2000/svg">
<path fill-rule="evenodd" clip-rule="evenodd" d="M126.392 5.78329C155.244 7.4377 188.623 1.25039 209.538 21.464C230.185 41.4192 219.332 76.4504 228.014 103.997C236.627 131.325 261.091 152.793 259.962 181.459C258.66 214.532 249.85 253.744 221.475 270.124C193.041 286.539 159.106 257.814 126.392 258.569C92.3874 259.354 57.0049 292.778 28.1106 274.587C-0.426438 256.621 1.93021 213.063 0.102068 179.061C-1.35313 151.996 13.1401 128.525 18.8334 102.042C25.4509 71.259 12.82 32.3713 36.1192 11.5199C59.288 -9.21461 95.5352 4.0139 126.392 5.78329Z" fill="#DDE2E8"/>
</svg>
